<svg xmlns="http://www.w3.org/2000/svg" xml:space="preserve" version="1.0" viewBox="0 0 100 100"><path  d="M67.1 48.1c-6.1 1.4-11.2 5.7-14.8 10.8 0-6.8-.1-11.2-.1-11.2 10.2-.5 13.9-12.9 12.7-24.7-.7.2-1.7.5-3 1 0 0-2.4 1-6.6 3.5-2-2.8-3.3-4.3-3.3-4.3-.5-.5-1.1-1.2-1.9-2-2.2 1.8-4 3.9-5.5 6.2-2.8-2.1-5.9-3.6-9.3-4.4-.1 1.8-.2 4.3 0 7.4.4 4.3.6 7.4 2.2 10.2 2.7 4.7 7.9 6.5 10.4 7.1v11.2c-3.6-5.5-9-9.2-14.8-10.9-2.8 18.1 10.7 30.7 17 30.7 3.2 0 9.6-5.1 12.5-9.7 4.4-6.4 5.5-14.2 4.5-20.9zM47.9 73.6c-4.3-2.7-7.5-6.9-9.2-11.3-1.4-3.4-1.3-4.4-1.7-8.3 8 5 11.3 12.5 10.9 19.6zm-1-30.2c-5.9-1.7-7.3-8.5-7.6-14.7 2.3 1.3 4.5 2.9 6.4 4.8.5-1.2 1-2.2 1.4-2.9 0 0 1.1-1.9 2.9-3.8.6.6 1.2 1.3 1.8 2 1.3 1.7 2.2 3.3 2.8 4.7 1.8-2 3.9-3.6 6.3-4.8-.1 3.1-.4 6.9-2 9.8-2.7 5-7.4 6.2-12 4.9zM63 57.7c-.8 5.5-4.7 12.2-10.5 15.9-.3-7.4 3.1-14.7 10.9-19.5-.3 3.2-.4 3.6-.4 3.6z"/></svg>