<svg xmlns="http://www.w3.org/2000/svg" xml:space="preserve" version="1.0" viewBox="0 0 100 100"><circle cx="50" cy="50" r="50"/><path fill="#FFF" d="M33.2 48.1C39.1 49.7 44.4 53.4 48 59V47.8c-2.5-.7-7.7-2.4-10.4-7.1-1.6-2.8-1.9-5.9-2.2-10.2-.3-3-.2-5.6 0-7.4 3.4.8 6.5 2.3 9.3 4.4 1.5-2.3 3.3-4.4 5.5-6.2.8.8 1.4 1.5 1.9 2 0 0 1.3 1.5 3.3 4.3 4.2-2.5 6.6-3.5 6.6-3.5 1.3-.5 2.4-.9 3-1 1.1 11.8-2.6 24.2-12.7 24.7 0 0 0 4.4.1 11.2 3.6-5.1 8.7-9.4 14.8-10.8 1 6.7-.1 14.5-4.3 21-3 4.6-9.4 9.7-12.5 9.7-6.5-.1-19.9-12.7-17.2-30.8z"/><path d="M47.9 73.6c-4.3-2.7-7.5-6.9-9.2-11.3-1.4-3.4-1.3-4.4-1.7-8.3 8 5 11.3 12.5 10.9 19.6zm4.6 0c5.8-3.7 9.7-10.4 10.5-15.9 0 0 .1-.4.4-3.6-7.8 4.8-11.3 12.1-10.9 19.5zM39.3 28.7c2.3 1.3 4.5 2.9 6.4 4.8.5-1.2 1-2.2 1.4-2.9 0 0 1.1-1.9 2.9-3.8.6.6 1.2 1.3 1.8 2 1.3 1.7 2.2 3.3 2.8 4.7 1.8-2 3.9-3.6 6.3-4.8-.1 3.1-.4 6.9-2 9.8-2.7 4.9-7.5 6.1-12.1 4.8-5.8-1.6-7.2-8.4-7.5-14.6z"/></svg>