<svg xmlns="http://www.w3.org/2000/svg" xml:space="preserve" version="1.0" viewBox="0 0 100 100"><circle cx="50" cy="50" r="50"/><path fill="#FFF" d="M81.6 47.3c-.1 14.2 2.3 31-16.4 33.3-5.6.7-10.8.4-16.2.3-5.5 0-11.1.2-16.5-1.4-7.6-2-12.8-8.3-13.4-16.1-.8-8.9-.3-17-.1-25.8.3-11.6 4.6-19 16.9-20 4.5-.4 8.7-.4 13-.4 6.4.1 13-.2 19.5.9 15.2 2.4 12.5 17.7 13.2 29.2zm-6 0c-.1-4.2-.1-8.4-.4-12.4-.5-5.9-1.4-10-8-10.9-6-1-12.2-.8-18.4-.9-6 .1-12.2-.4-17.7 1.5-5.3 2.1-5.9 7.3-6.2 13.2-.2 4.1-.2 8.3-.3 12.5.1 5.9-.6 12.1 1.7 17.4 2.6 5 7.8 6.5 13.5 7.1 4 .4 8.3.6 12.4.5 25.7.9 23.2-5.8 23.4-28z"/><path fill="#FFF" d="M39.6 50.2c0-6.1 3.7-10.8 10-10.9 5.8-.1 10.6 3.9 11.1 9.7 1.1 14.3-20.4 15.5-21.1 1.2-.2-3.8-6.2-3.9-6 0 .5 9.4 7.4 16.7 17.1 16.4 9.5-.3 16.5-8.1 16-17.5-.5-9.1-8-15.8-17.1-15.7-9.6.1-16 7.5-16 16.9-.1 3.8 5.9 3.8 6-.1zm27.6-13.6c4.5 0 4.5-7 0-7-4.6 0-4.6 7 0 7z"/></svg>