<svg xmlns="http://www.w3.org/2000/svg" xml:space="preserve" version="1.0" viewBox="0 0 100 100"><path d="M19.4 41.1c13.7 0 13.7 20.2 0 20.2s-13.7-20.2 0-20.2zm5.1 10.1c0-7-10.1-7-10.1 0s10.1 7 10.1 0z"/><path d="M46.5 56.4V61H31.1v-1.6C38.6 46.3 37 49 38.8 46h-7.1v-4.6h14.6V43c-7.6 13.4-6.1 10.8-7.7 13.4h7.9z"/><path d="M58.6 41.1c13.7 0 13.7 20.2 0 20.2s-13.7-20.2 0-20.2zm0 4.9c-6.8 0-6.8 10.5 0 10.5 6.8-.1 6.8-10.5 0-10.5z"/><path d="M89 41.4v19.7h-2.1l-9.9-10c.1 4.4.1 2.2.1 9.9h-5V41.3h2.1l9.9 9.7c-.1-4.3-.1-2.1-.1-9.6h5z"/></svg>