<svg xmlns="http://www.w3.org/2000/svg" xml:space="preserve" version="1.0" viewBox="0 0 100 100"><path d="M27 30.3s0-.1 0 0c.1 0 15.1 5.2 15.1 5l-2.6 18.2C46.3 42.3 53.1 31.2 59.9 20c9.5 3.3 16.8 5.9 16.8 5.9-2.2 11.1-6.2 22.5-4.4 27.4.8 2.2 2.5 2.8 4.8 1.6 3.8-2 17.6-23 18.8-25 3.8 8 4 15.1 4 14.1-.1-.1-1.3 6-5.1 11.9-3.2 4.9-8.3 12.9-17.8 14.6-2 .4-9 1.7-14-2.7-6.6-5.7-4.7-15-4.6-19.2l-18 29.9C35.2 76.7 30.1 75 25 73.2c.9-6.6 1.8-13.1 2.6-19.7l-20 23.4C6 74.4 3.9 71.8 2.2 64.8 2.1 64.8 28 28.9 27 30.3z"/></svg>