<svg xmlns="http://www.w3.org/2000/svg" width="48px" height="48px" viewBox="0 0 48 48"><path fill-rule="evenodd" clip-rule="evenodd" d="M24 48C37.2548 48 48 37.2548 48 24C48 10.7452 37.2548 0 24 0C10.7452 0 0 10.7452 0 24C0 37.2548 10.7452 48 24 48ZM34.7504 12.5L26.1881 22.2389H26.1876L35.5 35.5H28.6512L22.3802 26.57L14.5291 35.5H12.5L21.4794 25.2872L12.5 12.5H19.3488L25.2868 20.9562L32.7214 12.5H34.7504ZM22.4992 24.1266L23.409 25.3999V25.4004L29.6058 34.0733H32.7224L25.1285 23.4448L24.2187 22.1714L18.3768 13.9946H15.2602L22.4992 24.1266Z" fill="#000000"></path></svg>