<svg xmlns="http://www.w3.org/2000/svg" xml:space="preserve" version="1.0" viewBox="0 0 302.5 302.6"><path d="M188 135.8c-7.3 2-13.6 5.5-18.9 10.8-5.3 5.2-9 11.1-11.1 17.7-2.1 6.6-3.4 13.6-4 21.1-.5 7.5.2 14.5 2.2 21 4.2 14.6 12.3 26.8 24.4 36.6 12.1 9.8 25.3 12.8 39.5 9.1 9.5-2.4 16.9-7.3 22.5-14.7 5.5-7.4 8.9-16.1 10.2-26.1v21.9c-8.1 9.9-18.9 16.5-32.3 19.8-17 4.7-33.1 2.8-48.2-5.6-15.1-8.5-25.1-21-30-37.5-4.4-16.4-2.2-32 6.6-46.7 8.8-14.7 21.7-24.2 38.5-28.5 8-2 15.2-2.8 21.5-2.6 6.3.2 11.8 1.2 16.4 3 4.7 1.8 8.6 3.7 11.7 5.7 3.1 2 5.4 3.9 6.8 5.6l2.3 2.4v17.9c-.1-.3-.4-.8-.7-1.5-.4-.6-1.1-1.8-2.2-3.6s-2.2-3.5-3.5-5.3c-1.3-1.7-2.9-3.7-5-5.9s-4.3-4.3-6.5-6c-2.2-1.8-4.9-3.5-7.9-5.2-3.1-1.7-6.2-2.9-9.4-3.8-3.2-.9-6.9-1.3-10.9-1.3-3.7 0-7.8.6-12 1.7z"/><path d="M96.1 190.6c-2.1-1.4-4.7-4.3-5.5-12.6-1.2-13.4 3.9-24.8 5.6-28.4 10.2-22 20.2-39.2 25.3-48.3 4-7.2 9.9-18.1 16.5-31.9h1.3L193 191.2h-15.1l-20.3-46.7c-14 .5-21.9 5.3-25.9 8.6-7.9 6.4-13 16.4-14.6 19.6-5.5 10.8-6.6 17.7-12.6 19.4-4.4 1.1-8.3-1.3-8.4-1.5zm60.9-47.4c-8.7-19.5-17.4-38.9-26.1-58.4-5.5 11.7-10.3 21-13.5 27-14.7 27.6-25.8 43.5-25.5 62.6 0 3.2.3 13 5.5 15.4 1.4.6 4.6 1.4 7.5 0 1.3-.7 2.1-1.5 2.6-2.1 1.9-2.2 3.6-5.7 5.3-10.4 9.8-22 19.3-31.3 44.2-34.1z"/><path fill="#1F1D1D" d="M24.9 72c1.1-.7 2.6-1.8 4.3-3.3.8-.7 1.6-1.4 2.2-2.1.9-1 1.6-1.7 1.9-2.1 4-4.7 7.9-9.6 11.4-13.3 4-4.3 7.8-7.3 7.9-7.2.1.1-3.9 3.8-6.9 6.9C41 55.7 35 63 29.2 73.8c4.5 2 9.1 4.1 13.6 6.1L27 81.4l-3.4 8.2-3.2-7.6-11.1 1.5 9-6.5-4.1-9.1c2.6.9 5.2 1.9 7.8 3 1 .4 1.9.7 2.9 1.1zM136.7 2.8c0-.2 13.4-3.4 30.8-2.8 17.1.7 29.9 4.8 29.9 5 0 .2-13.3-3.6-32.2-4.1-16.8-.3-28.5 2.2-28.5 1.9zM229.4 17c-.1-.1-.2-.2-.1-.4.1-.1.2-.2.3-.1 2.4.9 4.9 1.9 7.3 2.8-.1-1.3-.2-2.5-.2-3.8 0-.2.2-.4.4-.4s.4.2.4.4c.1 1 .2 2 .3 2.9 2.3-4.9 4-8.5 4.3-9 .2-.4.4-.5.5-.4.4.2-1.8 5.1-3.9 9.8 2.2-.5 2.7-.4 2.7-.2v.2c-.1.4-.6.5-1.4.8-.3.1-.8.3-1.4.5 4.9 2 7.3 3.2 7.2 3.4h-.1c-2.4-.8-4.8-1.6-7.3-2.4.5 2.3.5 4.8.2 4.9-.3 0-.8-2.1-1-3-.2-.7-.3-1.3-.3-1.7-.9 1.8-1.9 3.6-3 5.5-1.8 3-3.6 5.6-5.4 7.8 1.4-2.6 2.8-5.2 4.1-7.8 0 0 1.2-2 2.1-3.6.3-.5.6-1.2 1-2 .1-.2.1-.3.2-.4-1.2.3-2.6.5-2.7.3l.1-.1c.7-.6 2.3-.8 2.3-.8 0-.1-3.3-1.7-6.6-3.2z"/><path d="M115.7 7.4c-.1-.2-14.5 3.1-30.9 12-17.7 9.6-28.6 20.8-28.5 21 .1.2 11.5-11 30.5-21.1 16-8.5 28.9-11.7 28.9-11.9zM18.3 90.6c.1 0-2.5 5.2-5.2 12.3-3.5 9.1-4.9 15.5-5 15.5-.1 0 1.7-8.6 6.1-19 2-4.9 4-8.8 4.1-8.8zM7.3 121c.1 0-1.3 5.4-2.5 12.4-2.6 15.4-2 26.6-2.2 26.6-.1 0-.9-10.2 1.1-23.3 1.4-8.6 3.5-15.7 3.6-15.7zm251.2-69.5c0-.1 4.7 2 10.1 5.3 5 3.1 8.7 6.1 8.6 6.1 0 .1-3.6-2.7-9.3-6.2-5.5-3.3-9.4-5.1-9.4-5.2zM283 67.3s1.1.6 2.3 1.5c1 .8 1.8 1.7 1.7 1.7 0 0-.5-.5-1.4-1.2-1.6-1.3-2.6-2-2.6-2zm5.4 4.4s.7.5 1.3.9c2.4 1.8 4 3.8 4 3.8s-.8-.9-2.7-2.5c-1.5-1.3-2.6-2.1-2.6-2.2zm-32.2-21.4s-10.3-5.6-24-9.9c-16.4-5.2-29.1-5.8-29.1-5.8 0 .1 16.4 1.2 36.7 8.6 9.5 3.5 16.4 7.1 16.4 7.1zm-55.5-16c0 .1-8.1-1-19.6-.7-8.8.2-15.1 1.2-15.1 1.1 0 0 6.8-1.1 15.5-1.4 11-.2 19.2 1 19.2 1zm-40.1 1.2c0 .1-6.1.8-14.5 3-12.9 3.3-21.7 7.4-21.8 7.3 0-.1 7.2-3.7 17.4-6.6 10.4-2.9 18.9-3.8 18.9-3.7zm-38.5 11.2s-3 1.3-7.3 3.4c-7.9 3.9-13.1 7.4-13.1 7.4 0-.1 4.3-3.1 10.3-6.2 5.4-2.9 10-4.6 10.1-4.6zM80.9 72.8s-1.7 1.4-4.2 3.8c-3.5 3.2-5.5 5.6-5.6 5.6 0 0 1.8-2.3 4.4-4.8 2.8-2.8 5.4-4.7 5.4-4.6zm-10.4 10S69 84.2 67 86.4c-3.5 3.8-5.6 6.9-5.6 6.8 0 0 1.6-2.6 4.2-5.5 2.5-2.9 4.9-4.9 4.9-4.9zm-9.4 10.8s-1.5 1.7-3.7 4.7c-1.6 2.2-2.6 3.8-2.6 3.8s1-1.8 2.4-3.8c2-2.8 3.9-4.7 3.9-4.7zM39 130.8c-.1 0 1.7-5.1 4.7-11 4.5-8.9 9.2-15.2 9.3-15.2.1 0-3.2 4.6-7.2 12.1-4.3 8-6.7 14.1-6.8 14.1zm-10.6 38.5c-.1 0 .5-7 2.2-14.7 2.5-11.4 6.5-19.5 6.7-19.5.2.1-4.9 11.5-7.8 27.6-.6 3.3-1 6.6-1.1 6.6zM3 170.6c-.1 0-.3-2-.4-4.4-.1-2.9.1-5.3.2-5.3s0 1.6.1 4.8c0 3.2.1 4.9.1 4.9zm46.8 96.9c-.1.1 4.3 5.8 11.4 10.9 2.2 1.6 4.3 2.9 4.3 2.8.1-.1-3.7-2.6-8.2-6.4-4.9-4.2-7.4-7.3-7.5-7.3zM216.3 17.4c.6 0 .6-1 0-1s-.7 1 0 1zm-4.2-1.1c.6 0 .6-1 0-1-.7 0-.7 1 0 1zm-4.8-.9c.6 0 .6-1 0-1-.7 0-.7 1 0 1zm-4.6-.9c.6 0 .6-1 0-1-.7 0-.7 1 0 1zm-4.8-.9c.6 0 .6-1 0-1-.7 0-.7 1 0 1zM193 13c.6 0 .6-1 0-1s-.6 1 0 1zm-4.7-.5c.6 0 .6-1 0-1s-.6 1 0 1zm-4.9-.4c.6 0 .6-1 0-1-.7 0-.7 1 0 1zm-4.7-.2c.6 0 .6-1 0-1-.7 0-.7 1 0 1zm-4.8 0c.6 0 .6-1 0-1s-.6 1 0 1zm-5.1 0c.6 0 .6-1 0-1s-.6 1 0 1zm-4.9.2c.6 0 .6-1 0-1s-.6 1 0 1zm-4.7.3c.6 0 .6-1 0-1s-.6 1 0 1zm-5.3.6c.6 0 .6-1 0-1-.7 0-.7 1 0 1zm-4.8.8c.6 0 .6-1 0-1-.7 0-.7 1 0 1zm-4.7.9c.6 0 .6-1 0-1s-.6 1 0 1zm-4.7 1.1c.6 0 .6-1 0-1-.7 0-.7 1 0 1zm-4.8 1.2c.6 0 .6-1 0-1s-.6 1 0 1zm-4.6 1.3c.6 0 .6-1 0-1-.7 0-.7 1 0 1zm-4.5 1.3c.6 0 .6-1 0-1-.7 0-.7 1 0 1zm-4.5 1.7c.6 0 .6-1 0-1-.7 0-.7 1 0 1zm-4.6 1.6c.6 0 .6-1 0-1s-.6 1 0 1zm-4.1 1.7c.6 0 .6-1 0-1-.7 0-.7 1 0 1zm-4.5 1.9c.6 0 .6-1 0-1s-.6 1 0 1zm-4.4 2.1c.6 0 .6-1 0-1s-.6 1 0 1zm-4.2 2.1c.6 0 .6-1 0-1-.7 0-.7 1 0 1zM95.4 33c.6 0 .6-1 0-1-.7 0-.7 1 0 1zm-4.2 2.2c.6 0 .6-1 0-1s-.6 1 0 1zm-3.9 2.5c.6 0 .6-1 0-1s-.6 1 0 1zm-4.1 2.5c.6 0 .6-1 0-1-.7 0-.7 1 0 1zm-3.9 2.6c.6 0 .6-1 0-1s-.6 1 0 1zm-3.7 2.8c.6 0 .6-1 0-1-.7 0-.7 1 0 1zM72 48.5c.6 0 .6-1 0-1s-.6 1 0 1zm-3.6 2.9c.6 0 .6-1 0-1-.7 0-.7 1 0 1zm-3.5 3.1c.6 0 .6-1 0-1s-.6 1 0 1zm-3.3 3.1c.6 0 .6-1 0-1-.7 0-.7 1 0 1zm-3.3 3.2c.6 0 .6-1 0-1s-.6 1 0 1zm-3.1 3.4c.6 0 .6-1 0-1s-.6 1 0 1zm-3.1 3.3c.6 0 .6-1 0-1s-.6 1 0 1zM49.2 71c.6 0 .6-1 0-1s-.6 1 0 1zm-2.8 3.7c.6 0 .6-1 0-1s-.6 1 0 1zm-2.7 3.6c.6 0 .6-1 0-1s-.6 1 0 1zM41.3 82c.6 0 .6-1 0-1s-.6 1 0 1zm-2.4 3.8c.6 0 .6-1 0-1-.7 0-.7 1 0 1zm-2.3 4c.6 0 .6-1 0-1-.7 0-.7 1 0 1zm-2 3.9c.6 0 .6-1 0-1-.7 0-.7 1 0 1zm-2.1 3.9c.6 0 .6-1 0-1-.7 0-.7 1 0 1zm-2.2 4.1c.6 0 .6-1 0-1s-.6 1 0 1zm-1.9 4.1c.6 0 .6-1 0-1s-.6 1 0 1zM3.3 173.3H3c-.1 0-.1 0-.2.1-.1 0-.1.1-.1.1s-.1.1-.1.2v.1c0 .1 0 .2.1.3l.1.1c.1.1.1.1.2.1h.3c.1 0 .1 0 .2-.1.1 0 .1-.1.1-.1s.1-.1.1-.2v-.1c0-.1 0-.2-.1-.3l-.1-.1c-.1 0-.1 0-.2-.1zm0 5.7c.6 0 .6-1 0-1s-.6 1 0 1zm.7 4.9c.6 0 .6-1 0-1-.7 0-.7 1 0 1zm.5 5.2c.6 0 .6-1 0-1-.7 0-.7 1 0 1zm22.5-5.6c.6 0 .6-1 0-1s-.6 1 0 1zm-.1 3.8c.6 0 .6-1 0-1-.7 0-.7 1 0 1zm-.1 5.6c.6 0 .6-1 0-1-.7 0-.7 1 0 1zm0 4.9c.6 0 .6-1 0-1-.7 0-.7 1 0 1zm-21.5-3.3c.6 0 .6-1 0-1s-.6 1 0 1zm1 5.3c.6 0 .6-1 0-1-.7 0-.7 1 0 1zm20.7 2.5c.6 0 .6-1 0-1-.7 0-.7 1 0 1zm-9.8.5c.6 0 .6-1 0-1-.7 0-.7 1 0 1zm-9.8 2.3c.6 0 .6-1 0-1-.7 0-.7 1 0 1zm19.8 1.6c.6 0 .6-1 0-1s-.6 1 0 1zm-9.4.3c.6 0 .6-1 0-1s-.6 1 0 1zm-9.2 3.1c.6 0 .6-1 0-1s-.6 1 0 1zm18.9.9c.6 0 .6-1 0-1s-.6 1 0 1zm-8.8.5c.6 0 .6-1 0-1-.7 0-.7 1 0 1zm-8.5 4.3c.6 0 .6-1 0-1s-.6 1 0 1zm9.4 0c.6 0 .6-1 0-1-.7 0-.7 1 0 1zm8.3-.8c.6 0 .6-1 0-1-.7 0-.7 1 0 1zm.5 4.7c.6 0 .6-1 0-1s-.6 1 0 1zm-7.7.6c.6 0 .6-1 0-1-.7 0-.7 1 0 1zm-8.8 1c.6 0 .6-1 0-1-.7 0-.7 1 0 1zm28 44.1s-.1 0 0 0c-.2.1-.2.1-.3.1-.1 0-.1.1-.1.1 0 .1-.1.1-.1.2v.2s0 .1.1.1c0 .1.1.1.2.2 0 0 .1 0 .1.1h.4c.1 0 .1 0 .2-.1.1 0 .1-.1.1-.1 0-.1.1-.1.1-.2v-.2s0-.1-.1-.1c0-.1-.1-.1-.2-.2 0 0-.1 0-.1-.1-.1-.1-.2-.1-.3 0zm2.9 4.8c.6 0 .6-1 0-1-.7 0-.7 1 0 1zm3.2 3.7c.6 0 .6-1 0-1-.7 0-.7 1 0 1zm3.3 4.1c.6 0 .6-1 0-1-.7 0-.7 1 0 1zm3.6 4.1c.6 0 .6-1 0-1s-.6 1 0 1zm3.7 3.8c.6 0 .6-1 0-1s-.6 1 0 1zm3.8 3.8c.6 0 .6-1 0-1s-.6 1 0 1zm3.8 3.6c.6 0 .6-1 0-1s-.6 1 0 1zm4.5 3.8c.6 0 .6-1 0-1s-.6 1 0 1zm4.4 3.7c.6 0 .6-1 0-1-.7 0-.7 1 0 1zm-51.3-76.3c.6 0 .6-1 0-1-.7 0-.7 1 0 1zm7.2-.7c.6 0 .6-1 0-1-.7 0-.7 1 0 1zm.6 4.2c.6 0 .6-1 0-1s-.6 1 0 1zm-6.6.7c.6 0 .6-1 0-1s-.6 1 0 1zm7.4 3.7c.6 0 .6-1 0-1s-.6 1 0 1zM256.3 33.8c.6 0 .6-1 0-1-.7 0-.7 1 0 1zm3.8 2.5c.6 0 .6-1 0-1-.7 0-.7 1 0 1zm3.6 3c.6 0 .6-1 0-1-.7 0-.7 1 0 1zm3.4 3.1c.6 0 .6-1 0-1s-.6 1 0 1zm3.6 3.1c.6 0 .6-1 0-1-.7 0-.7 1 0 1zm3.2 3c.6 0 .6-1 0-1s-.6 1 0 1zm3.2 3.3c.6 0 .6-1 0-1-.7 0-.7 1 0 1zm3.2 3.6c.6 0 .6-1 0-1-.7 0-.7 1 0 1zm3 3.4c.6 0 .6-1 0-1s-.6 1 0 1zm2.8 3.5c.6 0 .6-1 0-1s-.6 1 0 1z"/><path d="M286 62.1c.6 0 .6-1 0-1s-.6 1 0 1zm2.8 3.7c.6 0 .6-1 0-1s-.6 1 0 1zm2.7 3.7c.6 0 .6-1 0-1s-.6 1 0 1zm2.6 3.8c.6 0 .6-1 0-1s-.6 1 0 1zm-16.7 14.6c.5 0 .5-.7 0-.7-.4 0-.4.7 0 .7zm-4.1-.6c.5 0 .5-.7 0-.7-.4 0-.4.7 0 .7zm-4.1-.4c.5 0 .5-.7 0-.7s-.5.7 0 .7zm-4.1-.2c.5 0 .5-.7 0-.7s-.5.7 0 .7zm-4.3.2c.5 0 .5-.7 0-.7-.4 0-.4.7 0 .7zm-4.2.3c.5 0 .5-.7 0-.7-.4 0-.4.7 0 .7zm-4.2.4c.5 0 .5-.7 0-.7-.4 0-.4.7 0 .7zm-3.9.6c.5 0 .5-.7 0-.7-.4 0-.4.7 0 .7zm-4.2.7c.5 0 .5-.7 0-.7-.4 0-.4.7 0 .7zm-4.1.9c.5 0 .5-.7 0-.7s-.5.7 0 .7zm-3.9.8c.5 0 .5-.7 0-.7s-.5.7 0 .7zm-4.3.8c.5 0 .5-.7 0-.7-.4 0-.4.7 0 .7zm-4.1.9c.5 0 .5-.7 0-.7-.4 0-.4.7 0 .7zm-4.1.8c.5 0 .5-.7 0-.7s-.5.7 0 .7zm-4 .7c.5 0 .5-.7 0-.7s-.5.7 0 .7zm-4.2.8c.5 0 .5-.7 0-.7-.4 0-.4.7 0 .7zm-4 .7c.5 0 .5-.7 0-.7s-.5.7 0 .7zm-4.3.3c.5 0 .5-.7 0-.7-.4 0-.4.7 0 .7zm-4.2.3c.5 0 .5-.7 0-.7-.4 0-.4.7 0 .7zm-4.1.2c.5 0 .5-.7 0-.7s-.5.7 0 .7zm-4-.2c.5 0 .5-.7 0-.7s-.5.7 0 .7zm-4.3-.5c.5 0 .5-.7 0-.7s-.5.7 0 .7zm-1.3-3c.5 0 .5-.7 0-.7-.4 0-.4.7 0 .7zm2.9-2.9c.5 0 .5-.7 0-.7s-.5.7 0 .7zm3.7-2c.5 0 .5-.7 0-.7s-.5.7 0 .7zm3.7-1.8c.5 0 .5-.7 0-.7s-.5.7 0 .7zm3.7-1.6c.5 0 .5-.7 0-.7-.4 0-.4.7 0 .7zm3.7-1.5c.5 0 .5-.7 0-.7-.4 0-.4.7 0 .7zm3.9-1.7c.5 0 .5-.7 0-.7s-.5.7 0 .7zm4-1.5c.5 0 .5-.7 0-.7s-.5.7 0 .7zm3.8-1.5c.5 0 .5-.7 0-.7s-.5.7 0 .7zm3.8-1.6c.5 0 .5-.7 0-.7-.4 0-.4.7 0 .7zm3.8-1.5c.5 0 .5-.7 0-.7s-.5.7 0 .7zm3.8-1.8c.5 0 .5-.7 0-.7s-.5.7 0 .7zm3.5-1.8c.5 0 .5-.7 0-.7s-.5.7 0 .7zm3.6-2c.5 0 .5-.7 0-.7s-.5.7 0 .7zm3.5-2.2c.5 0 .5-.7 0-.7s-.5.7 0 .7zm2.8-2.6c.5 0 .5-.7 0-.7-.4 0-.4.7 0 .7zm-.9-3.3c.5 0 .5-.7 0-.7s-.5.7 0 .7zm-3.7-1.9c.5 0 .5-.7 0-.7-.4 0-.4.7 0 .7zm-3.9-1.1c.5 0 .5-.7 0-.7s-.5.7 0 .7zm-4-.9c.5 0 .5-.7 0-.7s-.5.7 0 .7zm-4.2-.6c.5 0 .5-.7 0-.7s-.5.7 0 .7zm-4.1-.4c.5 0 .5-.7 0-.7-.4 0-.4.7 0 .7zm-4.2-.4c.5 0 .5-.7 0-.7-.4 0-.4.7 0 .7zm-4.2-.2c.5 0 .5-.7 0-.7-.4 0-.4.7 0 .7zm-4.2-.1c.5 0 .5-.7 0-.7-.4 0-.4.7 0 .7zm-4 0c.5 0 .5-.7 0-.7s-.5.7 0 .7zm-4.3.1c.5 0 .5-.7 0-.7s-.5.7 0 .7zm-4.2.2c.5 0 .5-.7 0-.7-.4 0-.4.7 0 .7zm-4.1.5c.5 0 .5-.7 0-.7-.4 0-.4.7 0 .7zm-4.1.4c.5 0 .5-.7 0-.7s-.5.7 0 .7zm-4.2.5c.5 0 .5-.7 0-.7-.4 0-.4.7 0 .7zm-4.3.8c.5 0 .5-.7 0-.7-.4 0-.4.7 0 .7zm-3.8.6c.5 0 .5-.7 0-.7s-.5.7 0 .7zm-4.1.9c.5 0 .5-.7 0-.7-.4 0-.4.7 0 .7zm-4.1 1c.5 0 .5-.7 0-.7-.4 0-.4.7 0 .7zm-7.8 2.3c.5 0 .5-.7 0-.7-.4 0-.5.7 0 .7zm-4.1 1.4c.5 0 .5-.7 0-.7s-.5.7 0 .7zm-4 1.4c.5 0 .5-.7 0-.7-.4 0-.4.7 0 .7zm-3.7 1.5c.5 0 .5-.7 0-.7s-.5.7 0 .7zm-3.6 1.9c.5 0 .5-.7 0-.7-.4 0-.4.7 0 .7zm-3.8 1.8c.5 0 .5-.7 0-.7-.4 0-.4.7 0 .7zm-6.9 4.1c.5 0 .5-.7 0-.7-.4 0-.4.7 0 .7zm-3.3 2.1c.5 0 .5-.7 0-.7s-.5.7 0 .7zm-3.3 2.5c.5 0 .5-.7 0-.7s-.5.7 0 .7zm-3.2 2.6c.5 0 .5-.7 0-.7-.4 0-.4.7 0 .7zm-2.8 2.7c.5 0 .5-.7 0-.7-.4 0-.4.7 0 .7zm-2.7 2.7c.5 0 .5-.7 0-.7-.4 0-.4.7 0 .7zm-2.6 3.2c.5 0 .5-.7 0-.7s-.5.7 0 .7zm-2.4 3.1c.5 0 .5-.7 0-.7-.4 0-.4.7 0 .7zM165 61.6c.5 0 .5-.7 0-.7s-.5.7 0 .7z"/><path fill="none" stroke="#000" stroke-miterlimit="10" stroke-width=".5" d="M43.9 240.8c-3.7.7-7.4 1.5-11.2 2.2-.6-.7-1.1-1.5-1.7-2.2-2-2.5-3.9-4.8-5.9-7.1l-.9 12c-4 .8-8.1 1.6-12.1 2.4 3.6 1.3 7.2 2.6 10.9 3.8-.4 3.2-.8 6.5-1.2 9.7 2.8-2.3 5.6-4.5 8.5-6.8L46 261l-9.6-13.2c2.5-2.4 5-4.7 7.5-7z"/><path d="M27.4 179c.6 0 .6-1 0-1-.7 0-.7 1 0 1zm-.8-68.9c.6 0 .6-1 0-1-.7 0-.7 1 0 1zm-1.7 4.5c.6 0 .6-1 0-1-.7 0-.7 1 0 1zm-1.6 4.5c.6 0 .6-1 0-1-.7 0-.7 1 0 1zm-1.4 4.5c.6 0 .6-1 0-1s-.6 1 0 1zm-1.5 4.5c.6 0 .6-1 0-1s-.6 1 0 1zm-1.1 4.5c.6 0 .6-1 0-1s-.6 1 0 1zm-1.1 4.7c.6 0 .6-1 0-1-.7 0-.7 1 0 1zm-1 4.5c.6 0 .6-1 0-1-.7 0-.7 1 0 1zm-.8 4.7c.6 0 .6-1 0-1s-.6 1 0 1zm-.6 4.5c.6 0 .6-1 0-1s-.6 1 0 1zm-.6 4.6c.6 0 .6-1 0-1s-.6 1 0 1zm-.3 4.6c.6 0 .6-1 0-1-.7 0-.7 1 0 1zm-.3 4.6c.6 0 .6-1 0-1s-.6 1 0 1zm.1 4.8c.6 0 .6-1 0-1s-.6 1 0 1zm.1 4.7c.6 0 .6-1 0-1-.7 0-.7 1 0 1zm0 4.7c.6 0 .6-1 0-1-.7 0-.7 1 0 1zm.3 4.8c.6 0 .6-1 0-1s-.6 1 0 1zm.4 4.6c.6 0 .6-1 0-1s-.6 1 0 1zm.4 4.8c.6 0 .6-1 0-1s-.6 1 0 1zm.5 4.6c.6 0 .6-1 0-1s-.6 1 0 1z"/></svg>